<mxfile host="app.diagrams.net" modified="2021-07-12T08:16:45.936Z" agent="5.0 (Windows NT 10.0; Win64; x64) AppleWebKit/537.36 (KHTML, like Gecko) Chrome/91.0.4472.124 Safari/537.36" etag="Aym9-aGHI5YcoyLr_D5y" version="14.8.5" type="github">
  <diagram id="C5RBs43oDa-KdzZeNtuy" name="Page-1">
    <mxGraphModel dx="1240" dy="561" grid="1" gridSize="10" guides="1" tooltips="1" connect="1" arrows="1" fold="1" page="1" pageScale="1" pageWidth="827" pageHeight="1169" math="0" shadow="0">
      <root>
        <mxCell id="WIyWlLk6GJQsqaUBKTNV-0" />
        <mxCell id="WIyWlLk6GJQsqaUBKTNV-1" parent="WIyWlLk6GJQsqaUBKTNV-0" />
        <mxCell id="KstZ0ZairfjDcqceaPC7-7" style="edgeStyle=orthogonalEdgeStyle;rounded=0;orthogonalLoop=1;jettySize=auto;html=1;entryX=0.5;entryY=0;entryDx=0;entryDy=0;" edge="1" parent="WIyWlLk6GJQsqaUBKTNV-1" source="KstZ0ZairfjDcqceaPC7-0" target="KstZ0ZairfjDcqceaPC7-3">
          <mxGeometry relative="1" as="geometry" />
        </mxCell>
        <mxCell id="KstZ0ZairfjDcqceaPC7-0" value="start" style="ellipse;whiteSpace=wrap;html=1;" vertex="1" parent="WIyWlLk6GJQsqaUBKTNV-1">
          <mxGeometry x="354" y="90" width="110" height="40" as="geometry" />
        </mxCell>
        <mxCell id="KstZ0ZairfjDcqceaPC7-9" style="edgeStyle=orthogonalEdgeStyle;rounded=0;orthogonalLoop=1;jettySize=auto;html=1;" edge="1" parent="WIyWlLk6GJQsqaUBKTNV-1" source="KstZ0ZairfjDcqceaPC7-1" target="KstZ0ZairfjDcqceaPC7-2">
          <mxGeometry relative="1" as="geometry" />
        </mxCell>
        <mxCell id="KstZ0ZairfjDcqceaPC7-1" value="ดูเวลา" style="rounded=0;whiteSpace=wrap;html=1;" vertex="1" parent="WIyWlLk6GJQsqaUBKTNV-1">
          <mxGeometry x="354" y="190" width="120" height="60" as="geometry" />
        </mxCell>
        <mxCell id="KstZ0ZairfjDcqceaPC7-10" style="edgeStyle=orthogonalEdgeStyle;rounded=0;orthogonalLoop=1;jettySize=auto;html=1;entryX=0;entryY=0.5;entryDx=0;entryDy=0;" edge="1" parent="WIyWlLk6GJQsqaUBKTNV-1" source="KstZ0ZairfjDcqceaPC7-2" target="KstZ0ZairfjDcqceaPC7-6">
          <mxGeometry relative="1" as="geometry" />
        </mxCell>
        <mxCell id="KstZ0ZairfjDcqceaPC7-12" style="edgeStyle=orthogonalEdgeStyle;rounded=0;orthogonalLoop=1;jettySize=auto;html=1;entryX=0.5;entryY=0;entryDx=0;entryDy=0;" edge="1" parent="WIyWlLk6GJQsqaUBKTNV-1" source="KstZ0ZairfjDcqceaPC7-2" target="KstZ0ZairfjDcqceaPC7-4">
          <mxGeometry relative="1" as="geometry" />
        </mxCell>
        <mxCell id="KstZ0ZairfjDcqceaPC7-2" value="ถึงเวลานอน?" style="rhombus;whiteSpace=wrap;html=1;" vertex="1" parent="WIyWlLk6GJQsqaUBKTNV-1">
          <mxGeometry x="374" y="270" width="80" height="80" as="geometry" />
        </mxCell>
        <mxCell id="KstZ0ZairfjDcqceaPC7-8" style="edgeStyle=orthogonalEdgeStyle;rounded=0;orthogonalLoop=1;jettySize=auto;html=1;" edge="1" parent="WIyWlLk6GJQsqaUBKTNV-1" source="KstZ0ZairfjDcqceaPC7-3" target="KstZ0ZairfjDcqceaPC7-1">
          <mxGeometry relative="1" as="geometry">
            <Array as="points">
              <mxPoint x="414" y="230" />
              <mxPoint x="414" y="230" />
            </Array>
          </mxGeometry>
        </mxCell>
        <mxCell id="KstZ0ZairfjDcqceaPC7-3" value="" style="ellipse;whiteSpace=wrap;html=1;aspect=fixed;" vertex="1" parent="WIyWlLk6GJQsqaUBKTNV-1">
          <mxGeometry x="400" y="150" width="20" height="20" as="geometry" />
        </mxCell>
        <mxCell id="KstZ0ZairfjDcqceaPC7-13" style="edgeStyle=orthogonalEdgeStyle;rounded=0;orthogonalLoop=1;jettySize=auto;html=1;" edge="1" parent="WIyWlLk6GJQsqaUBKTNV-1" source="KstZ0ZairfjDcqceaPC7-4" target="KstZ0ZairfjDcqceaPC7-5">
          <mxGeometry relative="1" as="geometry" />
        </mxCell>
        <mxCell id="KstZ0ZairfjDcqceaPC7-4" value="นอน" style="rounded=0;whiteSpace=wrap;html=1;" vertex="1" parent="WIyWlLk6GJQsqaUBKTNV-1">
          <mxGeometry x="354" y="390" width="120" height="60" as="geometry" />
        </mxCell>
        <mxCell id="KstZ0ZairfjDcqceaPC7-5" value="end" style="ellipse;whiteSpace=wrap;html=1;" vertex="1" parent="WIyWlLk6GJQsqaUBKTNV-1">
          <mxGeometry x="371" y="490" width="86" height="50" as="geometry" />
        </mxCell>
        <mxCell id="KstZ0ZairfjDcqceaPC7-11" style="edgeStyle=orthogonalEdgeStyle;rounded=0;orthogonalLoop=1;jettySize=auto;html=1;entryX=1;entryY=0.5;entryDx=0;entryDy=0;" edge="1" parent="WIyWlLk6GJQsqaUBKTNV-1" source="KstZ0ZairfjDcqceaPC7-6" target="KstZ0ZairfjDcqceaPC7-3">
          <mxGeometry relative="1" as="geometry">
            <Array as="points">
              <mxPoint x="590" y="160" />
            </Array>
          </mxGeometry>
        </mxCell>
        <mxCell id="KstZ0ZairfjDcqceaPC7-6" value="ดูyoutube" style="rounded=0;whiteSpace=wrap;html=1;" vertex="1" parent="WIyWlLk6GJQsqaUBKTNV-1">
          <mxGeometry x="530" y="280" width="120" height="60" as="geometry" />
        </mxCell>
      </root>
    </mxGraphModel>
  </diagram>
</mxfile>
